<svg xmlns="http://www.w3.org/2000/svg" width="60" height="60" viewBox="0 0 60 60">
    <g id="Gruppe_349"  transform="translate(-18065 -1630.306)">
        <ellipse id="Ellipse_153" cx="29.952" cy="30" rx="29.952" ry="30" transform="translate(18065 1630.306)" fill="rgba(0,0,0,0.35)"/>
        <path id="Vereinigungsmenge_1" d="M22.795,56.68C11.822,54.557,3.911,46.7,1.01,36.184a29.483,29.483,0,0,1,.93-18.168A28.572,28.572,0,0,1,10.972,5.9,27.416,27.416,0,0,1,49.144,10a29.513,29.513,0,0,1,2.233,3.167c.5.8,1.979,3.014.279,3.449-1.142.29-1.841-1.576-2.513-2.61A24.534,24.534,0,0,0,28.94,2.362a16.988,16.988,0,0,0-4.934.28C22.9,2.975,21.4,4.816,20.467,5.809A31.284,31.284,0,0,0,13.3,18.667c-2.059,6.925-2.317,16.342.185,23.1,5.822,2.583,15.288,3.286,22.81,1.492A33.473,33.473,0,0,0,49.7,36.929c1.088-.848,2.964-2.149,3.352-3.169.525-1.375-.262-5.3,1.583-5.31,1.805-.011,1.123,2.4.931,3.82-1.426,10.566-7.2,17.7-15.176,21.8a28.659,28.659,0,0,1-12.8,3.06A25.245,25.245,0,0,1,22.795,56.68Zm-5.586-7.173c.716,1.106,2.2,3.61,3.258,4.191a10.912,10.912,0,0,0,2.422.559,25.207,25.207,0,0,0,8.286.28c10.62-1.483,16.909-8,20.388-15.932-.006-.057-.015-.11-.093-.093a35.373,35.373,0,0,1-16.293,7.36c-6.62,1.221-14.518.98-20.483-1.211A25.917,25.917,0,0,0,17.209,49.507Zm-1.4,2.049a30.873,30.873,0,0,1-4.1-8.013,32.371,32.371,0,0,1-6.89-3.726A24.269,24.269,0,0,0,15.812,51.557ZM5.757,15.593a26.205,26.205,0,0,0-3.351,14.44c.1,1.546.066,3.912.744,5.311.276.57,1.044.988,1.676,1.491a28.951,28.951,0,0,0,5.866,3.727C8.741,34.255,9.066,25.779,10.6,19.6A36.948,36.948,0,0,1,18.7,4.132,25.19,25.19,0,0,0,5.757,15.593Zm21.787,21.8c-2.2-1.935-2.114-7.114.093-9.223a7.291,7.291,0,0,1,8.1-.652,28.479,28.479,0,0,0-1.3,2.608c-1.475-.909-4.381-.739-4.561,1.211,2.373-1.23,6.143.05,6.143,3.262,0,2.659-2.436,4.023-4.875,4.023A5.482,5.482,0,0,1,27.545,37.394Zm3.164-3.726a.99.99,0,0,0-.744.559,1.213,1.213,0,1,0,2.327.557,1.035,1.035,0,0,0-1.044-1.2A1.933,1.933,0,0,0,30.709,33.668ZM15.161,37.581c.417-.981.866-1.929,1.3-2.888.817.7,4.507,1.5,4.563,0,.032-.889-.99-.863-2.027-.839-.293.007-.588.015-.86,0,.122-.955-.173-1.606,0-2.236.236-.863,1.349-1.064,1.583-1.865h-4V26.867h8.565c.5,2.732-1.124,3.346-2.143,4.564a3.174,3.174,0,0,1,2.7,3.728c-.277,2.435-2.77,3.455-5.356,3.455A9.1,9.1,0,0,1,15.161,37.581Zm22.437-1.3c-1.217-2.076-.78-6.03,0-7.36a4.76,4.76,0,0,1,3.539-2.236,5.083,5.083,0,0,1,5.119,2.236,8.043,8.043,0,0,1,0,7.36A4.983,4.983,0,0,1,41.9,38.592,4.9,4.9,0,0,1,37.6,36.276Zm4-6.523c-1.4.442-1.458,5.845.372,5.778,1.78-.067,1.737-5.826-.076-5.826A.987.987,0,0,0,41.6,29.754Zm7.261-7.36a5.392,5.392,0,0,1,.931-2.794,4.214,4.214,0,0,1,3.164-1.584,4.435,4.435,0,0,1,4.376,6.335,4.211,4.211,0,0,1-3.927,2.394A4.348,4.348,0,0,1,48.863,22.393Zm4.188-2.049c-2.683.332-2.114,4.223.279,4.194,2.653-.034,2.708-4.215.058-4.215A2.751,2.751,0,0,0,53.052,20.344Z" transform="translate(18067.207 1631.438)" fill="#fff"/>
    </g>
</svg>
