<svg width="13" height="24" viewBox="0 0 13 24" fill="none" xmlns="http://www.w3.org/2000/svg">
<path d="M6.49669 0.921066H6.50132C6.50712 0.929512 6.51855 0.946238 6.52434 0.954519C8.66611 3.09679 10.8085 5.23872 12.9503 7.38099C12.9647 7.39523 12.9824 7.40583 13 7.41643V7.42173C12.9617 7.4315 12.9415 7.4681 12.9144 7.4931C12.3399 8.06809 11.7649 8.6424 11.1904 9.21722C10.0491 8.07703 8.90922 6.93518 7.76738 5.79532C7.76605 11.5518 7.76721 17.308 7.76688 23.0645C6.91915 23.0626 6.07125 23.0683 5.22385 23.0616C5.22617 17.8727 5.22418 12.6838 5.22484 7.49493C5.22418 6.92856 5.22617 6.36219 5.22385 5.79582C4.0825 6.93551 2.94247 8.0767 1.80195 9.21722C1.2331 8.64969 0.665567 8.081 0.0972102 7.51314C0.0655796 7.48267 0.0375924 7.4474 0 7.42405V7.41858C0.0821401 7.34439 0.157159 7.26275 0.236484 7.18558C2.08017 5.34189 3.92401 3.49805 5.76769 1.65437C6.00997 1.40927 6.25822 1.16964 6.49669 0.921066Z" fill="#FFC300"/>
</svg>
