<svg width="64" height="64" viewBox="0 0 64 64" fill="none" xmlns="http://www.w3.org/2000/svg">
<path d="M50.1246 12.1745H46.4382L46.4386 10.9459C46.4386 9.87047 45.5682 9.00017 44.4929 9.00017C43.4175 9.00017 42.5472 9.87052 42.5472 10.9459V12.1747L33.9458 12.1744V10.9458C33.9458 9.87039 33.0754 9.00008 32.0001 9.00008C30.9247 9.00008 30.0544 9.87044 30.0544 10.9458V12.1747L21.4015 12.1743V10.9457C21.4015 9.87031 20.5311 9 19.4558 9C18.3808 9 17.5615 9.87035 17.5615 10.9457V12.1746H13.8751C10.4447 12.1746 7.67969 14.9392 7.67969 18.37V49.7043C7.67969 53.1347 10.4443 55.8997 13.8751 55.8997H50.1247C53.5551 55.8997 56.3201 53.1351 56.3201 49.7043V18.37C56.3201 14.9396 53.5555 12.1746 50.1247 12.1746L50.1246 12.1745ZM13.875 16.0145H17.5614V17.2434C17.5614 18.3187 18.4317 19.189 19.5071 19.189C20.5824 19.189 21.4528 18.3187 21.4528 17.2434V16.0145H30.1057V17.2434C30.1057 18.3187 30.976 19.189 32.0514 19.189C33.1267 19.189 33.9971 18.3187 33.9971 17.2434V16.0145H42.6499V17.2434C42.6499 18.3187 43.5203 19.189 44.5956 19.189C45.671 19.189 46.5413 18.3187 46.5413 17.2434V16.0145H50.2277C51.5077 16.0145 52.5831 17.0898 52.5831 18.3698V22.0052H11.5198V18.3698C11.5198 17.0387 12.5952 16.0145 13.8752 16.0145H13.875ZM50.1246 52.008H13.875C12.595 52.008 11.5196 50.9326 11.5196 49.6526V25.8447H52.4796V49.7038C52.4796 50.9835 51.4042 52.0077 50.1242 52.0077L50.1246 52.008Z" fill="white"/>
<path d="M22.3231 30.0947H17.6638C16.7934 30.0947 16.0767 30.8115 16.0767 31.6818V35.2657C16.0767 36.1361 16.7934 36.8529 17.6638 36.8529H22.3231C23.1934 36.8529 23.9102 36.1361 23.9102 35.2657V31.6818C23.9102 30.7604 23.1934 30.0947 22.3231 30.0947Z" fill="white"/>
<path d="M46.3358 30.0946H41.6765C40.8061 30.0946 40.0894 30.8114 40.0894 31.6817V35.2656C40.0894 36.136 40.8061 36.8527 41.6765 36.8527L46.3358 36.8531C47.2062 36.8531 47.9229 36.1363 47.9229 35.266V31.6821C47.9229 30.7603 47.2061 30.0946 46.3358 30.0946V30.0946Z" fill="white"/>
<path d="M34.3548 30.0947H29.6955C28.8252 30.0947 28.1084 30.8115 28.1084 31.6818V35.2657C28.1084 36.1361 28.8252 36.8529 29.6955 36.8529H34.3548C35.2252 36.8529 35.9419 36.1361 35.9419 35.2657V31.6818C35.8905 30.7604 35.1737 30.0947 34.3548 30.0947Z" fill="white"/>
<path d="M22.3231 41.0515H17.6638C16.7934 41.0515 16.0767 41.7683 16.0767 42.6386V46.2225C16.0767 47.0928 16.7934 47.8096 17.6638 47.8096H22.3231C23.1934 47.8096 23.9102 47.0928 23.9102 46.2225V42.6386C23.9102 41.7686 23.1934 41.0515 22.3231 41.0515Z" fill="white"/>
<path d="M46.3358 41.0515H41.6765C40.8061 41.0515 40.0894 41.7683 40.0894 42.6386V46.2225C40.0894 47.0929 40.8061 47.8096 41.6765 47.8096L46.3358 47.81C47.2062 47.81 47.9229 47.0932 47.9229 46.2229V42.639C47.9229 41.7686 47.2061 41.0515 46.3358 41.0515V41.0515Z" fill="white"/>
<path d="M34.3548 41.0515H29.6955C28.8252 41.0515 28.1084 41.7683 28.1084 42.6386V46.2225C28.1084 47.0928 28.8252 47.8096 29.6955 47.8096H34.3548C35.2252 47.8096 35.9419 47.0928 35.9419 46.2225V42.6386C35.8905 41.7686 35.1737 41.0515 34.3548 41.0515Z" fill="white"/>
</svg>
