<svg width="128" height="128" viewBox="0 0 128 128" fill="none" xmlns="http://www.w3.org/2000/svg">
<rect width="128" height="128" rx="22" fill="#202020"/>
<path d="M48.2242 52.4608C45.2685 48.1258 39.3583 47.0077 35.0233 49.9633C30.6883 52.919 29.5702 58.8292 32.5258 63.1642L48.2242 52.4608ZM63.8125 92.1875L55.9633 97.5392C57.811 100.249 60.9257 101.814 64.2028 101.679C67.4798 101.545 70.4556 99.7292 72.0745 96.8768L63.8125 92.1875ZM104.887 39.0643C107.477 34.5013 105.877 28.7028 101.314 26.113C96.7513 23.5232 90.9528 25.1228 88.363 29.6857L104.887 39.0643ZM32.5258 63.1642L55.9633 97.5392L71.6617 86.8358L48.2242 52.4608L32.5258 63.1642ZM72.0745 96.8768L104.887 39.0643L88.363 29.6857L55.5505 87.4982L72.0745 96.8768Z" fill="white"/>
</svg>
