<svg width="128" height="128" viewBox="0 0 128 128" fill="none" xmlns="http://www.w3.org/2000/svg">
<g clip-path="url(#clip0_162_1513)">
<rect width="128" height="128" rx="22" fill="#202020"/>
<path d="M63.4205 19.1949C78.6273 17.7621 94.1943 24.3202 104.155 35.8347C108.986 41.603 112.609 48.4404 114.398 55.7664C115.368 59.3633 115.676 63.0962 115.941 66.7996C115.842 74.1771 114.391 81.6097 111.22 88.3001C110.555 89.7404 109.721 91.0924 109.048 92.5326C109.647 93.374 110.72 93.6496 111.554 94.197C117.164 97.5367 122.573 101.214 127.746 105.193C128.187 105.594 128.749 105.983 128.91 106.59C129.223 109.709 128.686 112.85 127.804 115.837C127.364 117.446 126.394 118.831 125.486 120.206C121.393 126.312 113.67 129.652 106.418 128.638C105.716 128.494 105.268 127.895 104.823 127.388C100.793 122.256 97.2291 116.774 93.8122 111.223C93.2795 110.535 93.2537 109.272 92.2985 109.07C84.1641 113.938 74.5638 116.374 65.0885 115.9C56.8549 115.459 48.7059 112.971 41.7619 108.496C31.7685 102.364 24.2441 92.3747 20.9521 81.1321C18.5199 72.972 18.3986 64.1947 20.3753 55.9244C22.5466 47.6505 26.7828 39.8615 32.7862 33.7442C40.7736 25.3894 51.8876 20.0841 63.4205 19.1949ZM64.8791 37.1647C59.9595 37.3888 55.2053 39.1193 51.0756 41.7573C45.5499 45.1374 41.4276 50.5089 39.0137 56.4719C36.9526 61.215 36.6623 66.5057 37.1547 71.5979C38.5288 81.4554 44.9069 90.5634 53.9341 94.8767C60.2938 98.1723 67.8293 98.683 74.7512 97.1215C79.7847 95.9495 84.4176 93.374 88.2497 89.9388C93.6175 84.8686 97.1666 77.8548 97.8537 70.4847C98.6105 62.8978 96.3546 55.0537 91.6849 49.0245C87.3569 43.3114 80.9457 39.2185 73.9503 37.6791C70.978 37.0104 67.9065 37.0435 64.8791 37.1647Z" fill="white"/>
</g>
<defs>
<clipPath id="clip0_162_1513">
<rect width="128" height="128" rx="22" fill="white"/>
</clipPath>
</defs>
</svg>
