<svg width="128" height="128" viewBox="0 0 128 128" fill="none" xmlns="http://www.w3.org/2000/svg">
<rect width="128" height="128" rx="22" fill="#202020"/>
<path d="M59.3768 13.3606C76.2845 11.1909 93.9216 18.9618 104.026 32.6241C111.067 42.0735 114.73 54.0648 113.766 65.8365C113.006 74.2326 110.26 82.4947 105.433 89.4394C100.926 96.399 94.2937 101.665 87.3081 105.971C86.2512 106.965 86.9285 108.573 86.8131 109.838C87.0067 112.845 84.9783 116.306 81.6958 116.373C75.4359 116.504 69.1761 116.611 62.9125 116.589C57.7654 116.585 52.6108 116.69 47.4712 116.366C45.5061 115.919 43.9802 114.177 43.448 112.276C43.0237 110.366 43.4517 108.413 43.3178 106.488C43.2508 105.96 42.7074 105.729 42.3278 105.461C39.6147 103.891 36.9723 102.194 34.4862 100.292C32.4132 98.4012 30.2509 96.5888 28.4124 94.4637C22.0855 87.4744 18.0214 78.5535 16.5886 69.2567C15.5651 61.8766 16.0601 54.2434 18.4159 47.1536C21.3858 37.9275 27.1284 29.6021 34.7393 23.599C41.7844 17.9718 50.4113 14.3618 59.3768 13.3606ZM59.883 31.876C54.8997 32.7544 50.2066 34.9985 46.176 38.0243C42.4506 40.8044 39.7859 44.7159 37.5529 48.7316C34.155 55.5795 33.6972 63.7337 35.8334 71.0357C38.0739 77.9803 42.5995 84.3072 48.8928 88.1108C50.6197 89.1715 52.6145 90.0572 53.7236 91.8436C54.8959 94.0469 53.8725 96.5553 54.1144 98.8999C61.3531 98.8888 68.5955 98.9409 75.8304 98.8665C75.9421 97.0577 75.6109 95.2452 75.8602 93.4477C76.0947 91.4454 77.9034 90.154 79.5596 89.2943C85.5106 86.343 90.2743 81.2629 93.1065 75.2784C95.775 69.8187 96.3667 63.57 95.708 57.5892C95.1125 53.3911 93.4564 49.3829 91.2494 45.7803C88.4246 41.1207 84.1782 37.4846 79.4591 34.8385C73.5044 31.6714 66.5039 30.8154 59.883 31.876Z" fill="white"/>
<path d="M60.0899 35.2822C61.9954 34.9026 63.9604 34.7426 65.8957 34.9733C68.4079 35.2748 70.3729 37.7348 70.3059 40.2283C70.4287 42.2492 69.0666 44.151 67.3286 45.074C65.8585 45.8965 64.1093 45.5615 62.5127 45.863C54.887 46.7152 48.7425 53.8534 48.4931 61.4308C48.4336 62.5287 48.3554 63.6638 47.9088 64.6835C46.9412 66.3434 45.0729 67.3334 43.1971 67.4934C41.5373 67.2515 39.6727 66.63 38.813 65.0632C37.9384 63.6638 37.6816 61.963 37.823 60.3403C38.2399 54.233 40.912 48.3863 44.8682 43.7677C48.8616 39.4096 54.258 36.3243 60.0899 35.2822Z" fill="white"/>
<path d="M46.4102 122.362C47.2513 121.927 48.2227 121.983 49.1419 121.972C60.1879 122.02 71.2413 121.767 82.2836 122.009C83.2177 121.931 84.0328 122.422 84.6059 123.122C85.8601 124.435 86.6417 126.136 87.0548 127.889C83.4745 128.109 79.8905 127.919 76.3103 127.96C65.2643 127.923 54.2183 127.949 43.1723 127.923C43.1426 125.652 44.5494 123.564 46.4102 122.362Z" fill="white"/>
</svg>
