<svg width="128" height="128" viewBox="0 0 128 128" fill="none" xmlns="http://www.w3.org/2000/svg">
<rect width="128" height="128" rx="22" fill="#202020"/>
<path d="M45.2927 21.7646C54.2523 17.9137 64.3916 16.8898 73.9484 18.8152C83.2381 20.8149 91.9565 25.508 98.6752 32.2304C98.8756 32.3788 99.2725 32.6719 99.4692 32.8203C102.174 29.8746 105.064 27.107 107.958 24.3505C108.696 23.627 110.284 22.8405 110.951 24.0129C111.501 25.4226 111.437 26.9808 111.46 28.4685C111.456 35.1464 111.534 41.8243 111.482 48.5022C111.437 51.0955 111.582 53.7073 111.189 56.282C109.902 56.5788 108.581 56.7383 107.256 56.7198C102.437 56.7049 97.6142 56.768 92.7912 56.7124C88.4358 56.4304 84.058 56.7754 79.7025 56.4712C78.2853 56.5417 77.6027 54.5495 78.6341 53.6368C81.2681 50.5872 84.3697 47.9754 87.0928 45.0038C87.2894 44.5623 87.1966 44.0318 86.8182 43.7201C85.5717 42.3511 84.0506 41.2678 82.5518 40.1994C78.7565 37.6877 74.5494 35.651 70.0121 34.9758C63.4975 34.0483 56.6229 34.5788 50.6425 37.48C45.1851 40.2328 40.2769 44.3026 37.116 49.5855C35.862 51.5147 35.0496 53.6813 33.9662 55.7033C33.6027 56.3006 33.1167 57.0425 32.3079 56.9646C28.2232 56.998 24.1386 56.9721 20.0539 56.9164C19.1079 56.8533 17.9541 56.9498 17.264 56.167C17.0748 55.2284 17.2603 54.2712 17.4978 53.3586C21.4452 39.3869 31.9517 27.4817 45.2927 21.7646Z" fill="white"/>
<path d="M16.993 73.0066C18.7478 72.7654 20.5323 72.873 22.302 72.847C29.5994 72.8025 36.8932 72.873 44.1907 72.8322C45.8379 72.8396 47.4888 72.8174 49.1286 72.9806C49.3253 73.7263 49.8892 74.5239 49.4737 75.2956C48.5796 77.0801 46.8062 78.156 45.53 79.6363C43.9829 81.4207 42.0946 82.8973 40.6551 84.7745C40.2618 85.1604 40.822 85.5944 41.0521 85.8875C44.7657 89.3526 49.1398 92.1611 54.0258 93.6376C65.0072 97.1472 77.7583 94.0272 85.9647 85.9506C89.7489 82.4187 92.3162 77.7776 94.2416 73.0251C95.1691 72.5614 96.2376 72.643 97.243 72.6244C100.96 72.6578 104.674 72.5799 108.388 72.6393C109.167 72.6319 109.938 72.7988 110.658 73.0993C110.988 74.4312 110.491 75.7965 110.124 77.0764C107.078 87.2899 100.463 96.3681 91.7782 102.527C88.4096 104.716 85.0001 106.919 81.1863 108.247C73.0615 111.501 64.0501 112.306 55.4393 110.904C46.7431 109.572 38.6369 105.461 31.9219 99.8518C30.9016 99.0096 30.1114 97.9375 29.1209 97.0656C28.7536 96.7577 28.1785 96.8801 27.9188 97.2697C26.1232 99.184 24.2311 101.006 22.4207 102.909C21.3596 103.944 20.3431 105.079 19.0335 105.803C18.273 106.251 17.3195 106.003 16.6851 105.458C16.4922 104.582 16.5219 103.68 16.507 102.794C16.5738 95.4963 16.4736 88.1988 16.507 80.9013C16.5293 78.4454 16.4217 75.9782 16.7074 73.5334C16.7778 73.3998 16.9188 73.1364 16.993 73.0066Z" fill="white"/>
</svg>
