<svg width="123" height="97" viewBox="0 0 123 97" fill="none" xmlns="http://www.w3.org/2000/svg">
<path d="M60.5584 0.740479C44.9877 0.740479 32.3654 13.3628 32.3654 28.9336C32.3654 44.5041 44.9877 57.1267 60.5584 57.1267C76.1289 57.1267 88.7515 44.5041 88.7515 28.9336C88.7515 13.3628 76.129 0.740479 60.5584 0.740479ZM60.5584 50.8275C48.4668 50.8275 38.6646 41.0253 38.6646 28.9337C38.6646 16.842 48.4668 7.03991 60.5584 7.03991C62.4067 7.03991 64.2013 7.27006 65.9159 7.70133C67.1765 7.27483 68.5258 7.03991 69.9304 7.03991C76.8461 7.03991 82.4521 12.646 82.4521 19.5616C82.4521 20.9665 82.2175 22.3157 81.7907 23.5763C82.2219 25.2908 82.4521 27.0854 82.4521 28.9337C82.4523 41.0253 72.6501 50.8275 60.5584 50.8275Z" fill="white"/>
<path d="M57.4088 19.5617C57.4088 26.4772 63.0149 32.0834 69.9305 32.0834C75.4412 32.0834 80.1174 28.5218 81.7908 23.5763C79.8322 15.7892 73.7027 9.66012 65.9159 7.70135C60.9704 9.37496 57.4088 14.0507 57.4088 19.5617Z" fill="white"/>
<path d="M9.14191 93.5286V95.9541H-3.05176e-05V84.8568H8.9305V87.2823H3.18818V89.1531H8.24711V91.4993H3.18818V93.5286H9.14191V93.5286Z" fill="white"/>
<path d="M23.213 93.8297H21.5212V95.9541H18.3817V93.8297H12.363V91.7846L17.4708 84.8568H20.8056L16.1695 91.3408H18.4793V89.4542H21.5212V91.3408H23.213V93.8297Z" fill="white"/>
<path d="M28.5647 95.4944C27.8056 95.0401 27.2118 94.3768 26.7834 93.5048C26.3549 92.6329 26.1409 91.6001 26.1409 90.4055C26.1409 89.2114 26.3549 88.1781 26.7834 87.3063C27.2118 86.4342 27.8054 85.7711 28.5647 85.3167C29.3236 84.8625 30.1913 84.6349 31.1674 84.6349C32.1326 84.6349 32.9947 84.8623 33.7538 85.3167C34.5128 85.7711 35.1065 86.4342 35.535 87.3063C35.9633 88.1781 36.1775 89.2113 36.1775 90.4055C36.1775 91.5999 35.9632 92.6329 35.535 93.5048C35.1065 94.3768 34.5128 95.0401 33.7538 95.4944C32.9947 95.9489 32.1324 96.1761 31.1674 96.1761C30.1915 96.1761 29.3237 95.9489 28.5647 95.4944ZM32.4608 92.8391C32.7805 92.3265 32.9406 91.5153 32.9406 90.4055C32.9406 89.2958 32.7805 88.4847 32.4608 87.972C32.1407 87.4596 31.7096 87.2031 31.1676 87.2031C30.6145 87.2031 30.1778 87.4596 29.8581 87.972C29.5381 88.4847 29.3781 89.2958 29.3781 90.4055C29.3781 91.5153 29.5381 92.3265 29.8581 92.8391C30.1778 93.3518 30.6145 93.608 31.1676 93.608C31.7096 93.608 32.1407 93.3518 32.4608 92.8391Z" fill="white"/>
<path d="M47.1576 84.857H52.5419C53.7889 84.857 54.8949 85.0842 55.8604 85.5387C56.8254 85.9933 57.5738 86.638 58.1053 87.4729C58.6366 88.3079 58.9024 89.2855 58.9024 90.4057C58.9024 91.5261 58.6366 92.5038 58.1053 93.3386C57.5738 94.1736 56.8254 94.8184 55.8604 95.2727C54.8951 95.7272 53.7889 95.9544 52.5419 95.9544H47.1576V84.857ZM52.4118 93.4493C53.3879 93.4493 54.1711 93.1798 54.7624 92.6409C55.3533 92.1019 55.6489 91.3569 55.6489 90.4055C55.6489 89.4542 55.3533 88.7092 54.7624 88.1702C54.1711 87.6313 53.3877 87.3616 52.4118 87.3616H50.3785V93.4492H52.4118V93.4493Z" fill="white"/>
<path d="M72.0133 93.5286V95.9541H62.8712V84.8568H71.8017V87.2823H66.0594V89.1531H71.1183V91.4993H66.0594V93.5286H72.0133V93.5286Z" fill="white"/>
<path d="M77.3976 95.8434C76.5298 95.6213 75.8249 95.3256 75.2829 94.9555L76.3401 92.641C76.8496 92.9687 77.4408 93.2332 78.1133 93.4337C78.7854 93.6346 79.4472 93.7348 80.0977 93.7348C81.334 93.7348 81.9521 93.4337 81.9521 92.8312C81.9521 92.5143 81.7757 92.279 81.4234 92.1257C81.0711 91.9727 80.5047 91.8114 79.7237 91.6423C78.8667 91.4626 78.1511 91.2696 77.5763 91.0636C77.0014 90.8576 76.508 90.5272 76.096 90.0728C75.6836 89.6186 75.4779 89.0054 75.4779 88.2337C75.4779 87.5577 75.6675 86.9472 76.0471 86.4027C76.4268 85.8585 76.9932 85.4276 77.747 85.1108C78.5007 84.7937 79.425 84.6351 80.5207 84.6351C81.2687 84.6351 82.0064 84.717 82.7328 84.8809C83.4592 85.0449 84.0994 85.2852 84.6524 85.6021L83.66 87.9325C82.5754 87.3618 81.5235 87.0766 80.5044 87.0766C79.8643 87.0766 79.398 87.1693 79.1055 87.3539C78.8126 87.5391 78.6662 87.7795 78.6662 88.0753C78.6662 88.3713 78.8397 88.5932 79.1869 88.7411C79.5338 88.8893 80.0923 89.0423 80.8622 89.2008C81.7297 89.3806 82.4484 89.5734 83.0176 89.7795C83.5869 89.9856 84.0802 90.3133 84.498 90.7624C84.9154 91.2117 85.1242 91.822 85.1242 92.5934C85.1242 93.2593 84.9343 93.8617 84.555 94.4007C84.175 94.9398 83.6058 95.3706 82.8469 95.6928C82.0878 96.0151 81.1659 96.1761 80.0814 96.1761C79.1597 96.1761 78.2652 96.0651 77.3976 95.8434Z" fill="white"/>
<path d="M88.8817 84.857H92.1027V95.9543H88.8817V84.857Z" fill="white"/>
<path d="M104.303 90.1677H107.149V94.7651C106.499 95.2197 105.751 95.5685 104.905 95.8115C104.059 96.0546 103.213 96.1761 102.367 96.1761C101.174 96.1761 100.1 95.9303 99.146 95.439C98.1917 94.9476 97.4433 94.2635 96.9011 93.386C96.3589 92.5089 96.0879 91.5153 96.0879 90.4057C96.0879 89.2961 96.3589 88.3027 96.9011 87.4254C97.4433 86.5482 98.1969 85.8638 99.1622 85.3724C100.127 84.8811 101.217 84.6353 102.432 84.6353C103.495 84.6353 104.449 84.8096 105.295 85.1582C106.141 85.5072 106.846 86.0093 107.41 86.6644L105.36 88.4718C104.59 87.6474 103.668 87.2352 102.595 87.2352C101.619 87.2352 100.832 87.5232 100.236 88.0991C99.6393 88.6752 99.3414 89.4442 99.3414 90.4059C99.3414 91.0189 99.4767 91.566 99.7479 92.0467C100.019 92.5278 100.398 92.9028 100.886 93.1723C101.375 93.4418 101.933 93.5765 102.562 93.5765C103.18 93.5765 103.76 93.4552 104.302 93.212V90.1677H104.303Z" fill="white"/>
<path d="M122.31 84.857V95.9543H119.659L114.632 90.0411V95.9543H111.476V84.857H114.128L119.154 90.7701V84.857H122.31Z" fill="white"/>
<path d="M4.81892 77.0153C4.95735 77.1706 5.0268 77.3586 5.0268 77.5793C5.0268 77.7593 4.97687 77.9262 4.877 78.0801C4.77714 78.2341 4.62518 78.3584 4.42114 78.4526C4.21696 78.5467 3.96453 78.5942 3.6637 78.5942C3.44307 78.5942 3.22505 78.5679 3.00903 78.5157C2.79302 78.4633 2.60603 78.3894 2.44824 78.2935L2.76997 77.6447C2.89211 77.726 3.02977 77.7885 3.18326 77.832C3.33675 77.8755 3.48778 77.8973 3.63681 77.8973C3.78876 77.8973 3.90937 77.8698 3.99879 77.8146C4.08821 77.7595 4.13292 77.6811 4.13292 77.5794C4.13292 77.382 3.97344 77.2832 3.65479 77.2832H3.28374V76.7388L3.84238 76.1509H2.60895V75.4844H4.87024V76.0244L4.22218 76.704C4.48153 76.7561 4.68033 76.8599 4.81892 77.0153Z" fill="white"/>
<path d="M10.3895 75.4844H11.8687C12.2112 75.4844 12.5153 75.5468 12.7805 75.6717C13.0456 75.7966 13.2511 75.9737 13.3972 76.2031C13.5431 76.4323 13.6161 76.7009 13.6161 77.0088C13.6161 77.3165 13.5431 77.5851 13.3972 77.8145C13.2512 78.0437 13.0456 78.221 12.7805 78.3458C12.5153 78.4707 12.2114 78.5331 11.8687 78.5331H10.3895V75.4844ZM11.833 77.8448C12.1011 77.8448 12.3163 77.7709 12.4787 77.6228C12.6411 77.4748 12.7222 77.27 12.7222 77.0088C12.7222 76.7475 12.6411 76.5428 12.4787 76.3945C12.3163 76.2466 12.1011 76.1725 11.833 76.1725H11.2743V77.8449H11.833V77.8448Z" fill="white"/>
<path d="M28.3857 75.4844L27.0451 78.5331H26.1736L24.8374 75.4844H25.7938L26.6428 77.4703L27.5098 75.4844H28.3857Z" fill="white"/>
<path d="M33.4846 75.4844H34.3694V78.5331H33.4846V75.4844Z" fill="white"/>
<path d="M40.2774 78.5026C40.0389 78.4418 39.8454 78.3604 39.6965 78.2587L39.987 77.6227C40.127 77.7128 40.2894 77.7854 40.474 77.8406C40.6587 77.8958 40.8405 77.9233 41.0193 77.9233C41.3589 77.9233 41.5288 77.8406 41.5288 77.675C41.5288 77.588 41.4804 77.5235 41.3836 77.4812C41.2868 77.4391 41.131 77.3949 40.9165 77.3485C40.6812 77.299 40.4845 77.2462 40.3266 77.1895C40.1686 77.1328 40.0331 77.0421 39.9199 76.9174C39.8066 76.7926 39.7501 76.6242 39.7501 76.4121C39.7501 76.2263 39.8022 76.0587 39.9065 75.9092C40.0107 75.7597 40.1663 75.6412 40.3736 75.5541C40.5807 75.4672 40.8345 75.4235 41.1355 75.4235C41.341 75.4235 41.5437 75.446 41.7433 75.491C41.9429 75.536 42.1186 75.602 42.2706 75.689L41.998 76.3292C41.7001 76.1724 41.4111 76.0942 41.131 76.0942C40.9551 76.0942 40.8271 76.1195 40.7468 76.1704C40.6664 76.2211 40.6262 76.2873 40.6262 76.3684C40.6262 76.4497 40.6738 76.5107 40.7692 76.5514C40.8644 76.592 41.0179 76.6341 41.2295 76.6777C41.4678 76.7269 41.6652 76.78 41.8216 76.8366C41.978 76.8931 42.1135 76.9831 42.2283 77.1065C42.3431 77.23 42.4004 77.3978 42.4004 77.6095C42.4004 77.7924 42.3482 77.9581 42.244 78.1059C42.1397 78.254 41.9833 78.3724 41.7748 78.461C41.5663 78.5495 41.3129 78.5939 41.015 78.5939C40.7615 78.5941 40.5158 78.5635 40.2774 78.5026Z" fill="white"/>
<path d="M48.0823 78.2238C47.8247 77.9772 47.6958 77.6272 47.6958 77.1741V75.4844H48.5806V77.148C48.5806 77.636 48.7788 77.8798 49.175 77.8798C49.5683 77.8798 49.7648 77.636 49.7648 77.148V75.4844H50.6363V77.1741C50.6363 77.6272 50.5074 77.9772 50.2497 78.2238C49.9919 78.4705 49.6307 78.5941 49.166 78.5941C48.7012 78.5941 48.34 78.4707 48.0823 78.2238Z" fill="white"/>
<path d="M58.1799 77.9408H56.8571L56.6113 78.5329H55.7086L57.0895 75.4842H57.961L59.3464 78.5329H58.4258L58.1799 77.9408ZM57.9207 77.3049L57.5185 76.3292L57.1163 77.3049H57.9207Z" fill="white"/>
<path d="M64.5124 75.4844H65.3972V77.8494H66.8898V78.5331H64.5124V75.4844V75.4844Z" fill="white"/>
<path d="M78.7325 78.5026C78.4939 78.4418 78.3003 78.3604 78.1512 78.2587L78.4421 77.6227C78.5819 77.7128 78.7443 77.7854 78.9291 77.8406C79.1136 77.8958 79.2956 77.9233 79.4744 77.9233C79.8138 77.9233 79.9836 77.8406 79.9836 77.675C79.9836 77.588 79.9353 77.5235 79.8384 77.4812C79.7417 77.4391 79.5859 77.3949 79.3715 77.3485C79.1362 77.299 78.9393 77.2462 78.7815 77.1895C78.6237 77.1328 78.488 77.0421 78.375 76.9174C78.2619 76.7926 78.2052 76.6242 78.2052 76.4121C78.2052 76.2263 78.2574 76.0587 78.3616 75.9092C78.4661 75.7597 78.6217 75.6412 78.8288 75.5541C79.0359 75.467 79.2897 75.4235 79.5907 75.4235C79.7963 75.4235 79.9988 75.446 80.1984 75.491C80.3979 75.536 80.5737 75.602 80.726 75.689L80.4533 76.3292C80.1553 76.1724 79.8663 76.0942 79.5862 76.0942C79.4103 76.0942 79.2822 76.1195 79.2018 76.1704C79.1215 76.2211 79.0812 76.2873 79.0812 76.3684C79.0812 76.4497 79.129 76.5107 79.2244 76.5514C79.3195 76.592 79.4732 76.6341 79.6847 76.6777C79.923 76.7269 80.1205 76.78 80.2769 76.8366C80.4333 76.8931 80.5688 76.9831 80.6834 77.1065C80.798 77.23 80.8553 77.3978 80.8553 77.6095C80.8553 77.7924 80.8034 77.9581 80.6989 78.1059C80.5948 78.254 80.4382 78.3724 80.2295 78.461C80.0209 78.5497 79.7677 78.5939 79.4701 78.5939C79.2164 78.5941 78.9708 78.5635 78.7325 78.5026Z" fill="white"/>
<path d="M86.7989 76.1681H85.838V75.4844H88.6398V76.1681H87.6834V78.5331H86.7988V76.1681H86.7989Z" fill="white"/>
<path d="M94.197 78.2238C93.9392 77.9772 93.8105 77.6272 93.8105 77.1741V75.4844H94.6954V77.148C94.6954 77.636 94.8935 77.8798 95.2895 77.8798C95.683 77.8798 95.8795 77.636 95.8795 77.148V75.4844H96.751V77.1741C96.751 77.6272 96.6222 77.9772 96.3644 78.2238C96.1066 78.4705 95.7454 78.5941 95.2805 78.5941C94.816 78.5941 94.4548 78.4707 94.197 78.2238Z" fill="white"/>
<path d="M102.266 75.4844H103.745C104.088 75.4844 104.391 75.5468 104.657 75.6717C104.922 75.7966 105.127 75.9737 105.273 76.2031C105.419 76.4323 105.493 76.7009 105.493 77.0088C105.493 77.3165 105.419 77.5851 105.273 77.8145C105.127 78.0437 104.922 78.221 104.657 78.3458C104.391 78.4707 104.088 78.5331 103.745 78.5331H102.266V75.4844ZM103.709 77.8448C103.977 77.8448 104.192 77.7709 104.355 77.6228C104.517 77.4748 104.598 77.27 104.598 77.0088C104.598 76.7475 104.517 76.5428 104.355 76.3945C104.192 76.2466 103.977 76.1725 103.709 76.1725H103.15V77.8449H103.709V77.8448Z" fill="white"/>
<path d="M110.873 75.4844H111.758V78.5331H110.873V75.4844Z" fill="white"/>
<path d="M117.99 78.3893C117.726 78.2528 117.519 78.0641 117.368 77.8231C117.218 77.582 117.143 77.3105 117.143 77.0086C117.143 76.7066 117.218 76.4353 117.368 76.194C117.519 75.9531 117.726 75.7645 117.99 75.6279C118.253 75.4913 118.55 75.4232 118.881 75.4232C119.212 75.4232 119.509 75.4913 119.773 75.6279C120.036 75.7645 120.243 75.953 120.394 76.194C120.544 76.4351 120.62 76.7066 120.62 77.0086C120.62 77.3105 120.545 77.582 120.394 77.8231C120.243 78.064 120.036 78.2528 119.773 78.3893C119.509 78.5258 119.212 78.5941 118.881 78.5941C118.55 78.5941 118.253 78.5258 117.99 78.3893ZM119.31 77.7709C119.438 77.6983 119.539 77.596 119.614 77.4639C119.688 77.3317 119.726 77.1801 119.726 77.0088C119.726 76.8375 119.689 76.6857 119.614 76.5536C119.539 76.4216 119.438 76.3193 119.31 76.2466C119.182 76.1739 119.039 76.1377 118.881 76.1377C118.723 76.1377 118.58 76.1739 118.452 76.2466C118.324 76.3193 118.223 76.4216 118.148 76.5536C118.074 76.6857 118.036 76.8375 118.036 77.0088C118.036 77.1801 118.074 77.3317 118.148 77.4639C118.223 77.596 118.324 77.6983 118.452 77.7709C118.58 77.8435 118.723 77.8798 118.881 77.8798C119.039 77.8798 119.182 77.8434 119.31 77.7709Z" fill="white"/>
</svg>
