<svg width="128" height="54" viewBox="0 0 128 54" fill="none" xmlns="http://www.w3.org/2000/svg">
<g clip-path="url(#clip0_173_7543)">
<path d="M60.7489 44.8322V51.7915H59.6234V51.1444C59.4294 51.3821 59.1903 51.5604 58.9058 51.6789C58.6213 51.7977 58.3071 51.8573 57.9632 51.8573C57.4817 51.8573 57.0487 51.7511 56.6642 51.5382C56.2796 51.3257 55.9778 51.0239 55.7591 50.633C55.5402 50.2424 55.4308 49.7935 55.4308 49.2871C55.4308 48.7806 55.5401 48.3337 55.7591 47.946C55.9778 47.5582 56.2796 47.2582 56.6642 47.0454C57.0487 46.8331 57.4817 46.7266 57.9632 46.7266C58.2945 46.7266 58.5978 46.7829 58.873 46.8953C59.148 47.0079 59.3825 47.1769 59.5765 47.4018V44.832H60.7489V44.8322ZM58.8636 50.6614C59.0887 50.5331 59.267 50.3505 59.3983 50.1126C59.5296 49.8749 59.5952 49.5999 59.5952 49.2872C59.5952 48.9746 59.5296 48.6996 59.3983 48.4621C59.267 48.2244 59.0887 48.0415 58.8636 47.9133C58.6385 47.785 58.3853 47.7209 58.1039 47.7209C57.8225 47.7209 57.5693 47.785 57.3442 47.9133C57.1191 48.0415 56.9409 48.2244 56.8096 48.4621C56.6783 48.6998 56.6126 48.9748 56.6126 49.2872C56.6126 49.6 56.6783 49.8751 56.8096 50.1126C56.9409 50.3505 57.1191 50.5331 57.3442 50.6614C57.5693 50.7897 57.8225 50.8538 58.1039 50.8538C58.3853 50.8538 58.6384 50.7897 58.8636 50.6614Z" fill="white"/>
<path d="M75.1365 49.6623H71.2066C71.2753 50.0314 71.4551 50.3237 71.7459 50.5391C72.0365 50.7548 72.3978 50.8627 72.8292 50.8627C73.3793 50.8627 73.8327 50.6816 74.1891 50.3188L74.8176 51.041C74.5924 51.3099 74.308 51.5133 73.9641 51.6507C73.6201 51.7883 73.2324 51.8571 72.8009 51.8571C72.2507 51.8571 71.766 51.7477 71.3471 51.5286C70.9282 51.3099 70.6045 51.0052 70.3764 50.6143C70.1481 50.2237 70.0342 49.781 70.0342 49.287C70.0342 48.7994 70.1451 48.3602 70.3671 47.9693C70.5888 47.5784 70.8971 47.2737 71.2909 47.0547C71.6847 46.8359 72.1287 46.7266 72.6227 46.7266C73.1105 46.7266 73.5465 46.8343 73.9311 47.0501C74.3156 47.2659 74.6157 47.5693 74.8314 47.9599C75.0471 48.3508 75.155 48.8026 75.155 49.3152C75.1551 49.3966 75.1489 49.5122 75.1365 49.6623ZM71.6707 47.9973C71.4113 48.2193 71.2535 48.5148 71.1971 48.8837H74.039C73.9889 48.5211 73.8358 48.2271 73.5794 48.0022C73.323 47.7769 73.0041 47.6643 72.6227 47.6643C72.2476 47.6643 71.9302 47.7757 71.6707 47.9973Z" fill="white"/>
<path d="M84.7973 51.6976C84.4095 51.5914 84.0999 51.457 83.8688 51.2943L84.319 50.4031C84.5442 50.5535 84.8146 50.6739 85.1304 50.7644C85.4462 50.8551 85.7572 50.9004 86.0637 50.9004C86.7638 50.9004 87.1142 50.7158 87.1142 50.347C87.1142 50.1718 87.0251 50.0499 86.8469 49.9812C86.6688 49.9125 86.3827 49.8467 85.9886 49.7842C85.5761 49.7217 85.2398 49.6497 84.9804 49.5685C84.7208 49.4871 84.4957 49.3449 84.305 49.1417C84.1144 48.9386 84.019 48.6555 84.019 48.2929C84.019 47.8177 84.2175 47.4379 84.6146 47.1533C85.0117 46.8688 85.5478 46.7266 86.2231 46.7266C86.5668 46.7266 86.9109 46.7656 87.2549 46.8438C87.5986 46.9219 87.8799 47.0267 88.0988 47.1579L87.6486 48.049C87.2233 47.799 86.7451 47.6737 86.2136 47.6737C85.8696 47.6737 85.6086 47.7255 85.4304 47.8284C85.2522 47.9315 85.1631 48.0675 85.1631 48.2365C85.1631 48.4239 85.2582 48.557 85.4492 48.6353C85.6398 48.7133 85.9351 48.787 86.3355 48.8557C86.7355 48.9182 87.0638 48.9901 87.3204 49.0714C87.5766 49.1528 87.797 49.2901 87.9816 49.4841C88.1659 49.6777 88.2583 49.9528 88.2583 50.3092C88.2583 50.7781 88.055 51.1535 87.6486 51.4347C87.2422 51.7162 86.6888 51.8569 85.9885 51.8569C85.582 51.857 85.1851 51.8037 84.7973 51.6976Z" fill="white"/>
<path d="M97.4874 45.7552C97.3434 45.6207 97.2717 45.4537 97.2717 45.2532C97.2717 45.0534 97.3436 44.8861 97.4874 44.7516C97.6311 44.6171 97.8093 44.5498 98.0219 44.5498C98.2345 44.5498 98.4127 44.6142 98.5567 44.7422C98.7004 44.8705 98.7723 45.0316 98.7723 45.2252C98.7723 45.4316 98.7019 45.6051 98.5612 45.7457C98.4205 45.8865 98.2408 45.9568 98.0219 45.9568C97.8093 45.957 97.6311 45.8899 97.4874 45.7552ZM97.4311 46.7825H98.6036V51.7909H97.4311V46.7825Z" fill="white"/>
<path d="M113.273 46.783V51.0317C113.273 52.7951 112.372 53.6766 110.571 53.6766C110.09 53.6766 109.633 53.6158 109.202 53.4937C108.77 53.3719 108.414 53.1952 108.133 52.9638L108.658 52.0823C108.877 52.2634 109.153 52.4088 109.488 52.5182C109.823 52.6275 110.162 52.6824 110.506 52.6824C111.056 52.6824 111.459 52.5572 111.715 52.3071C111.972 52.057 112.1 51.6757 112.1 51.163V50.9004C111.9 51.1191 111.656 51.2848 111.368 51.3975C111.081 51.51 110.765 51.5664 110.421 51.5664C109.946 51.5664 109.516 51.4649 109.131 51.2615C108.747 51.0583 108.444 50.7722 108.222 50.4031C108 50.0343 107.889 49.6125 107.889 49.1369C107.889 48.662 108 48.2412 108.222 47.8755C108.443 47.5097 108.747 47.2268 109.131 47.0267C109.516 46.8266 109.946 46.7266 110.421 46.7266C110.784 46.7266 111.114 46.7859 111.411 46.9046C111.708 47.0234 111.956 47.2048 112.156 47.4485V46.7828H113.273V46.783ZM111.692 50.1733C111.977 49.9077 112.119 49.5623 112.119 49.1369C112.119 48.7183 111.977 48.3772 111.692 48.1146C111.407 47.8522 111.043 47.7208 110.599 47.7208C110.149 47.7208 109.782 47.8522 109.497 48.1146C109.213 48.3772 109.071 48.7183 109.071 49.1369C109.071 49.5623 109.213 49.9077 109.497 50.1733C109.782 50.4393 110.149 50.5721 110.599 50.5721C111.043 50.5719 111.408 50.4393 111.692 50.1733Z" fill="white"/>
<path d="M127.333 47.2802C127.714 47.6493 127.905 48.1962 127.905 48.9216V51.7915H126.732V49.0717C126.732 48.6339 126.629 48.3042 126.423 48.0821C126.216 47.8601 125.922 47.7492 125.541 47.7492C125.11 47.7492 124.769 47.879 124.519 48.1381C124.269 48.3979 124.144 48.7712 124.144 49.2591V51.7914H122.971V46.783H124.087V47.43C124.281 47.1986 124.525 47.0235 124.819 46.9046C125.113 46.7859 125.444 46.7266 125.813 46.7266C126.445 46.7268 126.951 46.9114 127.333 47.2802Z" fill="white"/>
<path d="M25.3507 0.0654297C11.372 0.0654297 0.0403175 11.3971 0.0403175 25.3756C0.0403175 39.3542 11.372 50.686 25.3507 50.686C39.3291 50.686 50.661 39.3542 50.661 25.3756C50.661 11.3971 39.3291 0.0654297 25.3507 0.0654297ZM25.3507 45.0311C14.4954 45.0311 5.69549 36.2311 5.69549 25.3759C5.69549 14.5206 14.4954 5.72074 25.3507 5.72074C27.01 5.72074 28.621 5.92736 30.1603 6.31453C31.292 5.93163 32.5032 5.72074 33.7645 5.72074C39.9729 5.72074 45.0058 10.7536 45.0058 16.9621C45.0058 18.2234 44.7951 19.4344 44.412 20.5663C44.7992 22.1054 45.0058 23.7165 45.0058 25.3759C45.0058 36.2311 36.2058 45.0311 25.3507 45.0311Z" fill="white"/>
<path d="M22.5231 16.962C22.5231 23.1705 27.5559 28.2034 33.7644 28.2034C38.7116 28.2034 42.9095 25.006 44.412 20.5662C42.6535 13.5753 37.1509 8.07294 30.1603 6.31445C25.7204 7.81694 22.5231 12.0147 22.5231 16.962Z" fill="white"/>
<path d="M75.7647 0.0654297H56.3164C55.8593 0.0654297 55.4888 0.43605 55.4888 0.893016V10.6861V31.0999C55.4888 31.1232 55.4905 31.1461 55.4923 31.1689C55.4903 31.1916 55.4888 31.2145 55.4888 31.2378V41.0309C55.4888 41.488 55.8593 41.8585 56.3164 41.8585H75.7647C76.2216 41.8585 76.5923 41.488 76.5923 41.0309V31.2378C76.5923 30.7809 76.2216 30.4103 75.7647 30.4103H66.2474V26.6861H70.7992C71.2561 26.6861 71.6268 26.3156 71.6268 25.8585V16.0654C71.6268 15.6085 71.2561 15.2378 70.7992 15.2378H66.2474V11.5137H75.7647C76.2216 11.5137 76.5923 11.1432 76.5923 10.6861V0.893016C76.5923 0.43605 76.2216 0.0654297 75.7647 0.0654297Z" fill="white"/>
<path d="M101.696 24.2034H99.6267V0.893016C99.6267 0.43605 99.2561 0.0654297 98.7992 0.0654297H89.6957C89.2386 0.0654297 88.8681 0.43605 88.8681 0.893016V24.2034H87.2129V0.893016C87.2129 0.43605 86.8423 0.0654297 86.3854 0.0654297H78.7992C78.342 0.0654297 77.9716 0.43605 77.9716 0.893016V25.0309V31.0999V33.1689C77.9716 33.626 78.342 33.9965 78.7992 33.9965H88.8681V41.0309C88.8681 41.488 89.2386 41.8585 89.6957 41.8585H98.7992C99.2561 41.8585 99.6267 41.488 99.6267 41.0309V33.9965H101.696C102.153 33.9965 102.523 33.626 102.523 33.1689V25.0309C102.523 24.574 102.153 24.2034 101.696 24.2034Z" fill="white"/>
<path d="M125.971 0.0654297H116.868H113.557H104.73H104.454C103.997 0.0654297 103.626 0.43605 103.626 0.893016V41.0309C103.626 41.488 103.997 41.8585 104.454 41.8585H104.73H113.557H116.868H125.971C126.428 41.8585 126.799 41.488 126.799 41.0309V31.2378V10.6861V0.893016C126.799 0.43605 126.428 0.0654297 125.971 0.0654297ZM114.385 11.5137H116.04V30.4103H114.385V11.5137Z" fill="white"/>
</g>
<defs>
<clipPath id="clip0_173_7543">
<rect width="128" height="53.7931" fill="white"/>
</clipPath>
</defs>
</svg>
