<svg width="64" height="64" viewBox="0 0 64 64" fill="none" xmlns="http://www.w3.org/2000/svg">
<path fill-rule="evenodd" clip-rule="evenodd" d="M32 6C41.9492 6 50.2418 14.0843 50.2418 24.2418C50.2418 32.5333 39.4633 47.2507 33.4518 56.3717C32.6226 57.4081 31.1718 57.4081 30.5497 56.3717C24.5383 47.2509 13.7598 32.5335 13.7598 24.2418C13.7598 14.085 21.8441 6 32.0016 6L32 6ZM32 17.4011C35.7311 17.4011 38.6332 20.5104 38.6332 24.2415C38.6332 27.9726 35.7311 30.8747 32 30.8747C28.2688 30.8747 25.1596 27.9726 25.1596 24.2415C25.1596 20.5104 28.2689 17.4011 32 17.4011Z" fill="white"/>
</svg>
