<svg width="39" height="39" viewBox="0 0 39 39" fill="none" xmlns="http://www.w3.org/2000/svg">
<path d="M19.2009 0.000106812C8.59644 0.000106812 0 8.59654 0 19.2009C0 29.8053 8.59644 38.4017 19.2009 38.4017C29.8052 38.4017 38.4017 29.8053 38.4017 19.2009C38.4017 8.59654 29.8052 0.000106812 19.2009 0.000106812ZM19.2009 34.1118C10.9658 34.1118 4.29011 27.436 4.29011 19.2011C4.29011 10.966 10.9658 4.29032 19.2009 4.29032C20.4596 4.29032 21.6818 4.44706 22.8495 4.74078C23.7081 4.45031 24.6269 4.29032 25.5837 4.29032C30.2935 4.29032 34.1116 8.10831 34.1116 12.8182C34.1116 13.775 33.9517 14.6937 33.6611 15.5524C33.9549 16.72 34.1116 17.9422 34.1116 19.2011C34.1116 27.436 27.4358 34.1118 19.2009 34.1118Z" fill="white"/>
<path d="M17.0558 12.8182C17.0558 17.528 20.8738 21.3461 25.5837 21.3461C29.3367 21.3461 32.5213 18.9205 33.6611 15.5524C32.3271 10.249 28.1527 6.07479 22.8495 4.74077C19.4814 5.88058 17.0558 9.0651 17.0558 12.8182Z" fill="white"/>
</svg>
