<svg width="24" height="24" viewBox="0 0 24 24" fill="none" xmlns="http://www.w3.org/2000/svg">
<g clip-path="url(#clip0_173_3022)">
<path d="M2.57351 4C1.16247 4 0 5.16272 0 6.57352V18.0118C0 19.4227 1.16272 20.5853 2.57351 20.5853H21.4467C22.8577 20.5853 24.0202 19.4226 24.0202 18.0118V6.57352C24.0202 5.16267 22.8575 4 21.4467 4H2.57351ZM2.76121 5.71585H21.2683L12.5374 13.5082C12.2045 13.8054 11.8344 13.8056 11.5007 13.5082L2.76116 5.71534L2.76121 5.71585ZM1.71558 7.08298L7.59557 12.3283L1.71558 17.9759V7.08298ZM22.3045 7.08298V17.9672L16.4424 12.3196L22.3045 7.08298ZM15.1556 13.4721L20.7588 18.8695H3.26179L8.88238 13.4813L10.3568 14.795C11.2941 15.6308 12.7437 15.632 13.6812 14.795L15.1559 13.4723L15.1556 13.4721Z" fill="#FFC300"/>
</g>
<defs>
<clipPath id="clip0_173_3022">
<rect width="24" height="24" fill="#FFC300"/>
</clipPath>
</defs>
</svg>
