<svg width="394" height="24" viewBox="0 0 394 24" fill="none" xmlns="http://www.w3.org/2000/svg">
<path d="M0.939346 13.0607C0.353546 12.4749 0.353546 11.5251 0.939346 10.9393L10.4853 1.3934C11.0711 0.807611 12.0208 0.807611 12.6066 1.3934C13.1924 1.97919 13.1924 2.92893 12.6066 3.51472L4.12132 12L12.6066 20.4853C13.1924 21.0711 13.1924 22.0208 12.6066 22.6066C12.0208 23.1924 11.0711 23.1924 10.4853 22.6066L0.939346 13.0607ZM186 13.5H2V10.5H186V13.5Z" fill="white"/>
<path d="M393.061 13.0607C393.646 12.4749 393.646 11.5251 393.061 10.9393L383.515 1.3934C382.929 0.807611 381.979 0.807611 381.393 1.3934C380.808 1.97919 380.808 2.92893 381.393 3.51472L389.879 12L381.393 20.4853C380.808 21.0711 380.808 22.0208 381.393 22.6066C381.979 23.1924 382.929 23.1924 383.515 22.6066L393.061 13.0607ZM208 13.5H392V10.5H208V13.5Z" fill="white"/>
<circle cx="197" cy="12" r="10.5" stroke="white" stroke-width="3"/>
</svg>
