<svg width="20" height="10" viewBox="0 0 20 10" fill="none" xmlns="http://www.w3.org/2000/svg">
<g clip-path="url(#clip0_47_228)">
<path d="M5.08602 9.32553C4.29692 8.38372 3.48238 7.56917 2.64238 6.8819C1.80238 6.19462 0.936925 5.63462 0.0460158 5.2019V4.51463C1.80238 3.62372 3.48238 2.24917 5.08602 0.390988H6.42238C6.01511 1.25644 5.60783 2.02008 5.20056 2.6819C4.79329 3.31826 4.39874 3.85281 4.01692 4.28553V5.43099C4.39874 5.83826 4.79329 6.37281 5.20056 7.03462C5.60783 7.67099 6.01511 8.43462 6.42238 9.32553H5.08602ZM3.82602 5.66008V4.05644H26.4678V5.66008H3.82602Z" fill="#1A1E1C"/>
</g>
<defs>
<clipPath id="clip0_47_228">
<rect width="9.16667" height="20" fill="white" transform="translate(0 9.58331) rotate(-90)"/>
</clipPath>
</defs>
</svg>
