<svg width="14" height="29" viewBox="0 0 14 29" fill="none" xmlns="http://www.w3.org/2000/svg">
<g clip-path="url(#clip0_47_340)">
<path d="M0.482748 7.28316C1.83126 6.15332 2.99754 4.98704 3.98159 3.78432C4.96564 2.58159 5.76746 1.34241 6.38705 0.0667949L7.37109 0.0667949C8.64671 2.58159 10.6148 4.98704 13.2754 7.28316L13.2754 9.19659C12.0362 8.61345 10.9428 8.03031 9.99523 7.44717C9.08407 6.86403 8.3187 6.29911 7.69911 5.75241L6.05903 5.75241C5.47589 6.29911 4.71052 6.86403 3.76291 7.44717C2.85176 8.03031 1.75837 8.61345 0.482748 9.19659L0.482748 7.28316ZM5.73101 5.47907L8.02713 5.47907L8.02713 37.898L5.73101 37.898L5.73101 5.47907Z" fill="white"/>
</g>
<defs>
<clipPath id="clip0_47_340">
<rect width="13.125" height="28.6364" fill="white"/>
</clipPath>
</defs>
</svg>
