<svg width="552" height="138" viewBox="0 0 552 138" fill="none" xmlns="http://www.w3.org/2000/svg">
    <path d="M40.46 55V50.244H8.972V29.416H35.13V24.578H8.972V4.816H40.46V0.0599986H3.56V55H40.46ZM53.236 55V32.204C53.236 25.398 56.598 19.33 63.568 19.33C69.718 19.33 72.752 22.692 72.752 29.58V55H78.082V32.204C78.082 25.398 81.444 19.33 88.496 19.33C94.564 19.33 97.598 22.692 97.598 29.58V55H103.01V28.35C103.01 19.33 98.746 14.82 91.202 14.82C83.822 14.82 79.312 20.314 78 26.792C77.59 18.838 73.408 14.82 66.274 14.82C58.976 14.82 54.63 20.15 53.236 26.628V15.64H47.824V55H53.236ZM122.077 55.82C129.949 55.82 135.033 49.752 136.345 44.094V48.276C136.345 53.278 138.969 55 142.905 55H146.595V50.162H144.299C142.413 50.162 141.511 49.424 141.511 47.374V28.924C141.511 20.15 136.755 14.82 127.571 14.82C119.207 14.82 113.467 19.494 111.007 23.594L114.779 27.366C116.829 23.02 121.093 19.658 126.997 19.658C133.393 19.658 136.181 23.102 136.181 29.006V29.334L121.257 36.14C115.763 38.6 111.909 41.88 111.909 47.046C111.909 52.294 115.599 55.82 122.077 55.82ZM117.321 46.308C117.321 43.356 119.289 41.388 123.553 39.42L136.345 33.352V40.322C136.345 45.652 130.933 51.31 123.635 51.31C119.781 51.31 117.321 49.588 117.321 46.308ZM160.701 8.588V0.0599986H155.289V8.588H160.701ZM160.701 55V15.64H155.289V55H160.701ZM177.597 55V0.0599986H172.185V55H177.597ZM226.615 55V4.816H244.491V0.0599986H203.327V4.816H221.203V55H226.615ZM252.684 55.82C260.556 55.82 265.64 49.752 266.952 44.094V48.276C266.952 53.278 269.576 55 273.512 55H277.202V50.162H274.906C273.02 50.162 272.118 49.424 272.118 47.374V28.924C272.118 20.15 267.362 14.82 258.178 14.82C249.814 14.82 244.074 19.494 241.614 23.594L245.386 27.366C247.436 23.02 251.7 19.658 257.604 19.658C264 19.658 266.788 23.102 266.788 29.006V29.334L251.864 36.14C246.37 38.6 242.516 41.88 242.516 47.046C242.516 52.294 246.206 55.82 252.684 55.82ZM247.928 46.308C247.928 43.356 249.896 41.388 254.16 39.42L266.952 33.352V40.322C266.952 45.652 261.54 51.31 254.242 51.31C250.388 51.31 247.928 49.588 247.928 46.308ZM291.308 55V32.204C291.308 25.398 294.67 19.33 301.64 19.33C307.79 19.33 310.824 22.692 310.824 29.58V55H316.154V32.204C316.154 25.398 319.516 19.33 326.568 19.33C332.636 19.33 335.67 22.692 335.67 29.58V55H341.082V28.35C341.082 19.33 336.818 14.82 329.274 14.82C321.894 14.82 317.384 20.314 316.072 26.792C315.662 18.838 311.48 14.82 304.346 14.82C297.048 14.82 292.702 20.15 291.308 26.628V15.64H285.896V55H291.308ZM357.613 70.252V44.586C358.925 50.654 363.189 55.82 370.733 55.82C380.983 55.82 387.133 47.702 387.133 35.238C387.133 22.856 380.983 14.656 370.733 14.656C363.189 14.656 358.925 19.822 357.613 25.972V15.64H352.201V70.252H357.613ZM357.613 38.928V31.548C357.613 24.988 361.139 19.248 369.093 19.248C376.227 19.248 381.639 24.168 381.639 35.238C381.639 46.308 376.227 51.228 369.093 51.228C361.139 51.228 357.613 45.488 357.613 38.928ZM401.736 55V0.0599986H396.324V55H401.736ZM420.928 55.82C428.8 55.82 433.884 49.752 435.196 44.094V48.276C435.196 53.278 437.82 55 441.756 55H445.446V50.162H443.15C441.264 50.162 440.362 49.424 440.362 47.374V28.924C440.362 20.15 435.606 14.82 426.422 14.82C418.058 14.82 412.318 19.494 409.858 23.594L413.63 27.366C415.68 23.02 419.944 19.658 425.848 19.658C432.244 19.658 435.032 23.102 435.032 29.006V29.334L420.108 36.14C414.614 38.6 410.76 41.88 410.76 47.046C410.76 52.294 414.45 55.82 420.928 55.82ZM416.172 46.308C416.172 43.356 418.14 41.388 422.404 39.42L435.196 33.352V40.322C435.196 45.652 429.784 51.31 422.486 51.31C418.632 51.31 416.172 49.588 416.172 46.308ZM465.813 55.902C470.897 55.902 474.751 53.524 476.473 50.654L474.587 45.406C473.275 48.194 470.405 50.736 466.879 50.736C463.435 50.736 460.483 49.178 460.483 43.52V19.822H473.685V15.64H460.483V5.964L455.153 9.982V15.64H448.757V19.822H455.153V44.996C455.153 52.13 459.827 55.902 465.813 55.902ZM497.208 55.82C505.572 55.82 510.82 51.802 513.608 46.964L510.328 43.11C508.606 46.964 505.162 51.31 497.208 51.31C489.418 51.31 484.088 46.39 483.76 36.55H513.772C513.854 35.894 514.018 34.91 514.018 33.926C514.018 22.036 507.294 14.82 496.552 14.82C485.892 14.82 478.594 22.528 478.594 35.32C478.594 48.358 486.22 55.82 497.208 55.82ZM496.552 19.248C503.768 19.248 508.606 23.758 509.098 32.614H483.842C484.58 23.758 489.336 19.248 496.552 19.248ZM538.016 55.82C545.314 55.82 551.71 52.458 551.71 44.914C551.71 39.338 548.43 35.976 540.23 33.926L534.982 32.614C529.241 31.22 526.29 29.744 526.29 25.644C526.29 21.544 529.652 19.33 534.408 19.33C540.558 19.33 544.658 22.282 546.462 27.612L550.562 24.578C548.594 19.002 543.1 14.82 534.736 14.82C526.618 14.82 521.206 19.084 521.206 25.89C521.206 32.942 527.028 35.566 532.686 36.96L538.016 38.19C543.346 39.42 546.872 40.896 546.872 44.996C546.872 49.096 543.428 51.228 538.18 51.228C530.226 51.228 525.306 46.8 524.076 41.47L520.058 44.504C522.436 52.212 529.98 55.82 538.016 55.82Z" fill="#1A1E1C"/>
    <path d="M15.04 137V122.978H23.486C37.59 122.978 47.84 117.238 47.84 102.478C47.84 87.8 37.426 82.06 23.486 82.06H0.28V137H15.04ZM23.65 95.18C29.39 95.18 32.26 97.64 32.26 102.478C32.26 107.234 29.39 109.858 23.65 109.858H15.04V95.18H23.65ZM71.6847 137.82C85.2967 137.82 93.4147 128.8 93.4147 116.746C93.4147 104.692 85.2967 95.672 71.6847 95.672C58.7287 95.672 50.6107 104.692 50.6107 116.746C50.6107 128.8 58.7287 137.82 71.6847 137.82ZM72.0127 126.012C68.2407 126.012 65.6167 123.798 65.6167 116.746C65.6167 109.694 68.2407 107.48 72.0127 107.48C75.7847 107.48 78.4087 109.694 78.4087 116.746C78.4087 123.798 75.7847 126.012 72.0127 126.012ZM112.895 137V116.582C112.895 110.022 116.011 106.824 119.373 106.824C121.751 106.824 122.735 108.382 122.735 110.678C122.735 113.138 121.095 116.254 119.619 117.976H133.149C134.297 115.926 135.937 111.744 135.937 106.824C135.937 100.1 133.313 95.672 126.261 95.672C117.979 95.672 114.125 103.216 112.895 110.186V96.492H98.1355V137H112.895ZM158.047 137.82C164.607 137.82 168.953 134.704 170.675 132.736L166.657 121.666C165.345 123.716 163.213 125.028 161.409 125.028C159.523 125.028 158.457 123.962 158.457 121.83V107.644H168.297V96.492H158.457V85.34L143.697 91.9V96.492H137.957V107.644H143.697V123.962C143.697 131.834 147.551 137.82 158.047 137.82ZM189.508 137V107.644H197.708V96.492H189.508V95.426C189.508 93.458 190.492 92.228 192.624 92.228C194.51 92.228 196.314 93.212 197.708 94.442L201.726 83.864C199.676 82.798 195.658 81.24 190.902 81.24C180.242 81.24 175.076 87.718 174.748 96.492H169.828V107.644H174.748V137H189.508ZM219.829 137.82C233.441 137.82 241.559 128.8 241.559 116.746C241.559 104.692 233.441 95.672 219.829 95.672C206.873 95.672 198.755 104.692 198.755 116.746C198.755 128.8 206.873 137.82 219.829 137.82ZM220.157 126.012C216.385 126.012 213.761 123.798 213.761 116.746C213.761 109.694 216.385 107.48 220.157 107.48C223.929 107.48 226.553 109.694 226.553 116.746C226.553 123.798 223.929 126.012 220.157 126.012ZM261.2 137V82.06H246.44V137H261.2ZM282.501 92.802V82.06H267.741V92.802H282.501ZM282.501 137V96.492H267.741V137H282.501ZM308.476 137.82C322.088 137.82 330.206 128.8 330.206 116.746C330.206 104.692 322.088 95.672 308.476 95.672C295.52 95.672 287.402 104.692 287.402 116.746C287.402 128.8 295.52 137.82 308.476 137.82ZM308.804 126.012C305.032 126.012 302.408 123.798 302.408 116.746C302.408 109.694 305.032 107.48 308.804 107.48C312.576 107.48 315.2 109.694 315.2 116.746C315.2 123.798 312.576 126.012 308.804 126.012Z" fill="#4BC587"/>
</svg>
